<svg xmlns="http://www.w3.org/2000/svg" xmlns:xlink="http://www.w3.org/1999/xlink" width="740" zoomAndPan="magnify" viewBox="0 0 555 374.999991" height="500" preserveAspectRatio="xMidYMid meet" version="1.0"><defs><clipPath id="id1"><path d="M 0 301.695312 L 555 301.695312 L 555 374.996094 L 0 374.996094 Z M 0 301.695312 " clip-rule="nonzero"/></clipPath></defs><g clip-path="url(#id1)"><path fill="#00f9ff" d="M 0 308.808594 L 0 302.289062 L 228.5 302.289062 L 294.242188 368.207031 L 479.648438 368.207031 L 545.773438 301.9375 L 554.929688 301.9375 L 482.304688 374.726562 L 291.585938 374.726562 L 225.84375 308.808594 Z M 0 308.808594 " fill-opacity="1" fill-rule="nonzero"/></g><path fill="#00f9ff" d="M 372.039062 368.207031 L 380.8125 359.410156 L 460.285156 359.410156 L 481.328125 338.347656 L 509.425781 338.347656 L 479.648438 368.207031 Z M 372.039062 368.207031 " fill-opacity="1" fill-rule="nonzero"/><path fill="#00f9ff" d="M 46.34375 321.492188 L 190.054688 321.492188 L 190.230469 321.667969 L 203.265625 334.738281 L 255.34375 334.738281 L 255.34375 336 L 202.742188 336 L 202.566406 335.792969 L 189.53125 322.753906 L 46.34375 322.753906 Z M 46.34375 321.492188 " fill-opacity="1" fill-rule="nonzero"/><path fill="#00f9ff" d="M 93.492188 330.957031 L 170.972656 330.957031 L 182.085938 342.132812 L 228.886719 342.132812 L 236.050781 349.320312 L 270.195312 349.320312 L 270.195312 350.582031 L 235.527344 350.582031 L 228.359375 343.359375 L 181.5625 343.359375 L 170.449219 332.21875 L 93.492188 332.21875 Z M 93.492188 330.957031 " fill-opacity="1" fill-rule="nonzero"/></svg>