<svg xmlns="http://www.w3.org/2000/svg" xmlns:xlink="http://www.w3.org/1999/xlink" width="740" zoomAndPan="magnify" viewBox="0 0 555 374.999991" height="500" preserveAspectRatio="xMidYMid meet" version="1.0"><defs><clipPath id="id1"><path d="M 1 88.25 L 553 88.25 L 553 374.75 L 1 374.75 Z M 1 88.25 " clip-rule="nonzero"/></clipPath></defs><g clip-path="url(#id1)"><path fill="#00f9ff" d="M 239.609375 374.96875 L 462.789062 374.96875 L 552.980469 284.851562 L 552.980469 88.359375 L 550.3125 88.359375 L 550.3125 283.757812 L 461.691406 372.300781 L 240.742188 372.300781 L 201.789062 333.382812 L 1.761719 333.382812 L 1.761719 336.085938 L 200.691406 336.085938 Z M 239.609375 374.96875 " fill-opacity="1" fill-rule="nonzero"/></g><path fill="#00f9ff" d="M 130.652344 354.320312 L 219.492188 354.320312 L 219.492188 351.617188 L 131.785156 351.617188 L 114.085938 333.929688 L 112.183594 335.832031 Z M 130.652344 354.320312 " fill-opacity="1" fill-rule="nonzero"/><path fill="#00f9ff" d="M 495.011719 339.523438 L 497.714844 339.523438 L 497.714844 307.765625 L 532.792969 272.683594 L 532.792969 173.761719 L 552.617188 153.992188 L 550.675781 152.089844 L 530.121094 172.664062 L 530.121094 271.589844 L 495.011719 306.632812 Z M 495.011719 339.523438 " fill-opacity="1" fill-rule="nonzero"/><path fill="#00f9ff" d="M 551.664062 117.484375 L 541.242188 127.898438 L 541.242188 163.457031 L 552.433594 152.238281 Z M 551.664062 117.484375 " fill-opacity="1" fill-rule="nonzero"/></svg>