<svg xmlns="http://www.w3.org/2000/svg" xmlns:xlink="http://www.w3.org/1999/xlink" width="740" zoomAndPan="magnify" viewBox="0 0 555 374.999991" height="500" preserveAspectRatio="xMidYMid meet" version="1.0"><defs><clipPath id="id1"><path d="M 182 3 L 436 3 L 436 86.25 L 182 86.25 Z M 182 3 " clip-rule="nonzero"/></clipPath></defs><path fill="#00f9ff" d="M 549.515625 64.601562 L 549.515625 70.992188 L 323.988281 70.992188 L 259.101562 6.355469 L 76.105469 6.355469 L 10.84375 71.335938 L 1.804688 71.335938 L 73.484375 -0.0351562 L 261.722656 -0.0351562 L 326.609375 64.601562 Z M 549.515625 64.601562 " fill-opacity="1" fill-rule="nonzero"/><g clip-path="url(#id1)"><path fill="#00f9ff" d="M 435.921875 86.148438 L 321.433594 86.148438 L 272.867188 37.765625 L 215.878906 37.765625 L 182.421875 4.46875 L 183.660156 3.230469 L 216.570312 36.046875 L 273.554688 36.046875 L 322.160156 84.429688 L 435.921875 84.429688 Z M 435.921875 86.148438 " fill-opacity="1" fill-rule="nonzero"/></g><path fill="#00f9ff" d="M 303.53125 44.566406 L 325.367188 44.566406 L 338.441406 57.589844 L 420.332031 57.589844 L 429.09375 66.285156 L 324.433594 66.285156 Z M 303.53125 44.566406 " fill-opacity="1" fill-rule="nonzero"/><path fill="#00f9ff" d="M 197.703125 17.59375 L 197.703125 19.3125 L 112.707031 19.3125 L 100.769531 31.203125 L 69.277344 31.203125 L 44.335938 56.011719 L 41.921875 56.011719 L 68.550781 29.484375 L 100.046875 29.484375 L 111.980469 17.59375 Z M 197.703125 17.59375 " fill-opacity="1" fill-rule="nonzero"/></svg>