<svg xmlns="http://www.w3.org/2000/svg" xmlns:xlink="http://www.w3.org/1999/xlink" width="740" zoomAndPan="magnify" viewBox="0 0 555 374.999991" height="500" preserveAspectRatio="xMidYMid meet" version="1.0"><defs><clipPath id="id1"><path d="M 0 0 L 474.777344 0 L 474.777344 375 L 0 375 Z M 0 0 " clip-rule="nonzero"/></clipPath></defs><g clip-path="url(#id1)"><path fill="#00f9ff" d="M 1.753906 374.644531 L -3.589844 374.644531 L -3.589844 81.53125 L 77.417969 0.488281 L 474.976562 0.488281 L 474.976562 5.832031 L 79.65625 5.832031 L 1.753906 83.738281 Z M 1.753906 374.644531 " fill-opacity="1" fill-rule="nonzero"/></g><path fill="#00f9ff" d="M 0.0507812 207.679688 L -1.851562 205.808594 L 60.089844 143.835938 L 60.089844 53.839844 L 60.488281 53.4375 L 112.515625 1.421875 L 114.382812 3.292969 L 62.761719 54.941406 L 62.761719 144.9375 L 62.394531 145.308594 Z M 0.0507812 207.679688 " fill-opacity="1" fill-rule="nonzero"/><path fill="#00f9ff" d="M 0.0195312 298.144531 L -1.851562 296.273438 L 32.976562 261.429688 L 32.976562 171.53125 L 35.648438 171.53125 L 35.648438 262.53125 Z M 0.0195312 298.144531 " fill-opacity="1" fill-rule="nonzero"/><path fill="#00f9ff" d="M 0.0507812 259.59375 L -1.851562 257.6875 L 13.941406 241.886719 L 13.941406 190.574219 L 16.613281 190.574219 L 16.613281 243.023438 Z M 0.0507812 259.59375 " fill-opacity="1" fill-rule="nonzero"/><path fill="#00f9ff" d="M 56.28125 120.085938 L 56.28125 141.53125 L 40.289062 157.5 L 40.289062 136.085938 Z M 56.28125 120.085938 " fill-opacity="1" fill-rule="nonzero"/><path fill="#00f9ff" d="M 56.28125 90.921875 L 56.28125 112.367188 L 40.289062 128.335938 L 40.289062 106.921875 Z M 56.28125 90.921875 " fill-opacity="1" fill-rule="nonzero"/><path fill="#00f9ff" d="M 56.28125 61.757812 L 56.28125 83.203125 L 40.289062 99.171875 L 40.289062 77.757812 Z M 56.28125 61.757812 " fill-opacity="1" fill-rule="nonzero"/><path fill="#00f9ff" d="M 137.824219 11.109375 L 116.386719 11.109375 L 100.425781 27.113281 L 121.832031 27.113281 Z M 137.824219 11.109375 " fill-opacity="1" fill-rule="nonzero"/><path fill="#00f9ff" d="M 167.210938 11.109375 L 145.773438 11.109375 L 129.8125 27.113281 L 151.214844 27.113281 Z M 167.210938 11.109375 " fill-opacity="1" fill-rule="nonzero"/><path fill="#00f9ff" d="M 196.558594 11.109375 L 175.121094 11.109375 L 159.160156 27.113281 L 180.566406 27.113281 Z M 196.558594 11.109375 " fill-opacity="1" fill-rule="nonzero"/></svg>